<svg xmlns="http://www.w3.org/2000/svg" viewBox="0 0 76.21 76.21"><defs><style>.cls-1{fill:#fc6a5d;}.cls-2{fill:#fff;}.cls-3{fill:none;stroke:#fff;stroke-miterlimit:10;}</style></defs><g id="Layer_2" data-name="Layer 2"><g id="Layer_1-2" data-name="Layer 1"><path class="cls-1" d="M76.21,38.11a38.1,38.1,0,0,1-76,4.35A36.82,36.82,0,0,1,0,38.11,39,39,0,0,1,.21,34a38.11,38.11,0,0,1,76,4.07Z"/><path class="cls-2" d="M52.36,42.58C50,36.45,44,32.27,36.37,32.25H24.07a6.81,6.81,0,0,0-6.61,5.62l-.62,4.22a6.37,6.37,0,0,1,1.52-3.24,7.06,7.06,0,0,1,5.27-2.3l12.61-.07a14.5,14.5,0,0,1,2.49.22l.5.09a12.47,12.47,0,0,1,10,10.76h0a14.28,14.28,0,0,1-.05,3.91,15.6,15.6,0,0,1-.62,2.64A17.83,17.83,0,0,1,43.21,62,17.45,17.45,0,0,1,31.89,66.4H30.26a2.78,2.78,0,0,1-2.84-3.27l.15-1.05h4.22A13.31,13.31,0,0,0,40,59a12.27,12.27,0,0,0,4.55-7.53,9,9,0,0,0-.81-5.28h0a9.85,9.85,0,0,0-8.86-5.4H22.83a6.68,6.68,0,0,0-1.09.09,6.84,6.84,0,0,0-5.52,5.53L13.64,64.16a5.52,5.52,0,0,0,5.68,6.45h5.26c-4.46,0-5.85-2.23-6.2-4.24a7,7,0,0,1-.09-1.73,8.42,8.42,0,0,1,.2-1.42l2.43-16.76a1.85,1.85,0,0,1,.66-1.13,1.87,1.87,0,0,1,1.23-.47h2.76L23,62.82a7.15,7.15,0,0,0,.37,3.57,6.76,6.76,0,0,0,6.52,4.23h1A23.52,23.52,0,0,0,52.23,55.71a22,22,0,0,0,.67-2.13,18.78,18.78,0,0,0,.43-2.11A17.25,17.25,0,0,0,52.36,42.58ZM30.07,44.82h4.44a5.81,5.81,0,0,1,5.59,6.62,8.27,8.27,0,0,1-7.51,6.61H28.16Z"/><path class="cls-3" d="M50.63,18.9l-6.59,6a1.06,1.06,0,0,1-1.78-.78V20.84A29.5,29.5,0,0,0,38,22.32h0c-.53.23-1.06.47-1.56.74a42.41,42.41,0,0,1-.29-4.94,44.29,44.29,0,0,1,.25-4.63c.52.27,1,.52,1.6.75a28.47,28.47,0,0,0,4.32,1.47V12.12A1.06,1.06,0,0,1,44,11.34l6.59,6A1.07,1.07,0,0,1,50.63,18.9Z"/></g></g></svg>
